<?xml version="1.0" encoding="UTF-8"?>
<svg xmlns="http://www.w3.org/2000/svg" xmlns:xlink="http://www.w3.org/1999/xlink" version="1.1" viewBox="0 0 70.9 120">
  <defs>
    <style>
      .cls-1 {
        fill: none;
      }

      .cls-2 {
        fill: #a4f236;
      }

      .cls-3 {
        clip-path: url(#clippath);
      }
    </style>
    <clipPath id="clippath">
      <rect class="cls-1" x="36" width="34.9" height="120"/>
    </clipPath>
  </defs>
  <!-- Generator: Adobe Illustrator 28.7.1, SVG Export Plug-In . SVG Version: 1.2.0 Build 142)  -->
  <g>
    <g id="Layer_1">
      <g id="Layer_1-2" data-name="Layer_1">
        <g class="cls-3">
          <g>
            <path class="cls-1" d="M38.7,22.6c-.3.3-.5.7-.5,1.1v72.3c0,.4,0,.8.5,1.1l20.8,20.8c.3.3.7.5,1.1.5h7.1c.2,0,.4,0,.6,0,.2,0,.4-.2.5-.3,0,0,.3-.3.3-.5s0-.4,0-.6V2.9c0-.2,0-.4,0-.6,0-.2-.2-.4-.3-.5-.2-.1-.3-.3-.5-.3s-.4-.1-.6-.1h-7.1c-.4,0-.8.1-1.1.5l-20.8,20.8h0Z"/>
            <g>
              <path class="cls-2" d="M60.6,117.4c-.2,0-.3,0-.4-.2l-20.7-20.9c0,0-.2-.2-.2-.4V23.7c0-.2,0-.3.2-.4L60.2,2.5c0,0,.2,0,.3,0h7.3s0,0,.2,0v.2c0,0,0,0,0,.2v114.4c0,0-.2,0-.3,0h-7.3,0Z"/>
              <path class="cls-2" d="M62,4.2h0M65.7,4.8v110.1h-4.3l-19.6-19.7V24.5L61.4,4.8h4.3M60.6-.2c-.8,0-1.5.3-2.1.9l-20.7,20.8c-.6.6-.9,1.3-.9,2.2v72.3c0,.8.3,1.6.9,2.2l20.7,20.9c.6.6,1.3.9,2.2.9h7.1c.4,0,.8,0,1.2-.2s.7-.4,1-.7c.3-.3.5-.6.7-1s.2-.8.2-1.2V2.9c0-.4,0-.8-.2-1.2-.2-.4-.4-.7-.7-1C69.7.4,69.4.2,69,0c-.4-.2-.8-.2-1.2-.2h-7.2Z"/>
            </g>
          </g>
        </g>
        <path class="cls-2" d="M28.9,30.1L.7,58.3c-.2.2-.4.5-.5.7C0,59.3,0,59.6,0,59.9S0,60.5.2,60.8c.2.3.3.5.5.7l28.2,28.2c.3.3.7.5,1.2.6.4,0,.9,0,1.3,0s.8-.5,1-.9.4-.8.4-1.3V31.7c0-.5,0-.9-.4-1.2s-.6-.7-1-.8c-.4-.2-.8-.2-1.3-.1-.4,0-.8.3-1.2.6h0Z"/>
      </g>
    </g>
  </g>
</svg>