<?xml version="1.0" encoding="UTF-8"?>
<svg xmlns="http://www.w3.org/2000/svg" xmlns:xlink="http://www.w3.org/1999/xlink" version="1.1" viewBox="0 0 70.9 120">
  <defs>
    <style>
      .cls-1 {
        fill: none;
      }

      .cls-2 {
        fill: #a4f236;
      }

      .cls-3 {
        clip-path: url(#clippath);
      }
    </style>
    <clipPath id="clippath">
      <rect class="cls-1" x="0" width="34.9" height="120"/>
    </clipPath>
  </defs>
  <!-- Generator: Adobe Illustrator 28.7.1, SVG Export Plug-In . SVG Version: 1.2.0 Build 142)  -->
  <g>
    <g id="Layer_1">
      <g id="Layer_1-2" data-name="Layer_1">
        <g class="cls-3">
          <g>
            <path class="cls-1" d="M32.2,97.4c.3-.3.5-.7.5-1.1V24c0-.4,0-.8-.5-1.1L11.4,2.1c-.3-.3-.7-.5-1.1-.5H3.2c-.2,0-.4,0-.6,0-.2,0-.4.2-.5.3,0,0-.3.3-.3.5s0,.4,0,.6v114c0,.2,0,.4,0,.6,0,.2.2.4.3.5.2.1.3.3.5.3s.4.1.6.1h7.1c.4,0,.8-.1,1.1-.5l20.8-20.8h0Z"/>
            <g>
              <path class="cls-2" d="M10.3,2.6c.2,0,.3,0,.4.2l20.7,20.9c0,0,.2.2.2.4v72.2c0,.2,0,.3-.2.4l-20.7,20.8c0,0-.2,0-.3,0H3.1s0,0-.2,0v-.2c0,0,0,0,0-.2V2.7c0,0,.2,0,.3,0h7.3,0Z"/>
              <path class="cls-2" d="M8.9,115.8h0M5.2,115.2V5.1h4.3l19.6,19.7v70.7l-19.6,19.7h-4.3M10.3,120.2c.8,0,1.5-.3,2.1-.9l20.7-20.8c.6-.6.9-1.3.9-2.2V24c0-.8-.3-1.6-.9-2.2L12.4.9c-.6-.6-1.3-.9-2.2-.9H3.1c-.4,0-.8,0-1.2.2s-.7.4-1,.7c-.3.3-.5.6-.7,1S0,2.7,0,3.1v114C0,117.5,0,117.9.2,118.3c.2.4.4.7.7,1,.3.3.6.5,1,.7.4.2.8.2,1.2.2h7.2Z"/>
            </g>
          </g>
        </g>
        <path class="cls-2" d="M42,89.9l28.2-28.2c.2-.2.4-.5.5-.7.1-.3.2-.6.2-.9s0-.6-.2-.9c-.2-.3-.3-.5-.5-.7l-28.2-28.2c-.3-.3-.7-.5-1.2-.6-.4,0-.9,0-1.3,0s-.8.5-1,.9-.4.8-.4,1.3v56.3c0,.5,0,.9.4,1.2s.6.7,1,.8c.4.2.8.2,1.3.1.4,0,.8-.3,1.2-.6h0Z"/>
      </g>
    </g>
  </g>
</svg>