<svg xmlns="http://www.w3.org/2000/svg" xmlns:xlink="http://www.w3.org/1999/xlink" zoomAndPan="magnify" preserveAspectRatio="xMidYMid meet" version="1.0" viewBox="13.41 174.05 348.15 21.7">
<defs><g/></defs><g fill="#000000" fill-opacity="1"><g transform="translate(12.175785, 195.749987)"><g><path d="M 1.238281 0 L 22.503906 0 C 26.71875 0 29.507812 -2.851562 29.507812 -6.601562 L 29.507812 -15.097656 C 29.507812 -18.847656 26.71875 -21.699219 22.503906 -21.699219 L 1.238281 -21.699219 Z M 6.417969 -4.710938 L 6.417969 -16.988281 L 22.503906 -16.988281 C 23.496094 -16.988281 24.332031 -16.179688 24.332031 -15.097656 L 24.332031 -6.601562 C 24.332031 -5.515625 23.496094 -4.710938 22.503906 -4.710938 Z M 6.417969 -4.710938 "/></g></g></g><g fill="#000000" fill-opacity="1"><g transform="translate(42.923963, 195.749987)"><g><path d="M 2.355469 -15.097656 L 0.929688 0 L 6.105469 0 L 6.914062 -8.523438 L 23.21875 -8.523438 L 24.023438 0 L 29.199219 0 L 27.773438 -15.097656 C 27.433594 -18.847656 25.015625 -21.699219 20.800781 -21.699219 L 9.332031 -21.699219 C 5.113281 -21.699219 2.695312 -18.847656 2.355469 -15.097656 Z M 7.347656 -13.234375 L 7.53125 -15.097656 C 7.625 -16.179688 8.339844 -16.988281 9.332031 -16.988281 L 20.800781 -16.988281 C 21.792969 -16.988281 22.503906 -16.179688 22.597656 -15.097656 L 22.78125 -13.234375 Z M 7.347656 -13.234375 "/></g></g></g><g fill="#000000" fill-opacity="1"><g transform="translate(73.052215, 195.749987)"><g><path d="M 9.332031 0 L 20.800781 0 C 25.015625 0 27.433594 -2.851562 27.773438 -6.601562 L 29.199219 -21.699219 L 24.023438 -21.699219 L 22.597656 -6.601562 C 22.503906 -5.515625 21.792969 -4.710938 20.800781 -4.710938 L 9.332031 -4.710938 C 8.339844 -4.710938 7.625 -5.515625 7.53125 -6.601562 L 6.105469 -21.699219 L 0.929688 -21.699219 L 2.355469 -6.601562 C 2.695312 -2.851562 5.113281 0 9.332031 0 Z M 9.332031 0 "/></g></g></g><g fill="#000000" fill-opacity="1"><g transform="translate(103.180467, 195.749987)"><g><path d="M 1.238281 0 L 20.085938 0 L 20.085938 -4.710938 L 13.265625 -4.710938 L 13.265625 -16.988281 L 20.085938 -16.988281 L 20.085938 -21.699219 L 1.238281 -21.699219 L 1.238281 -16.988281 L 8.058594 -16.988281 L 8.058594 -4.710938 L 1.238281 -4.710938 Z M 1.238281 0 "/></g></g></g><g fill="#000000" fill-opacity="1"><g transform="translate(124.50581, 195.749987)"><g><path d="M 1.238281 0 L 22.503906 0 C 26.71875 0 29.507812 -2.851562 29.507812 -6.601562 C 29.507812 -10.382812 26.71875 -13.234375 22.503906 -13.234375 L 8.246094 -13.234375 C 7.253906 -13.234375 6.417969 -14.011719 6.417969 -15.097656 C 6.417969 -16.179688 7.253906 -16.988281 8.246094 -16.988281 L 29.507812 -16.988281 L 29.507812 -21.699219 L 8.246094 -21.699219 C 4.03125 -21.699219 1.238281 -18.847656 1.238281 -15.097656 C 1.238281 -11.375 4.03125 -8.523438 8.246094 -8.523438 L 22.503906 -8.523438 C 23.496094 -8.523438 24.332031 -7.71875 24.332031 -6.601562 C 24.332031 -5.515625 23.496094 -4.710938 22.503906 -4.710938 L 1.238281 -4.710938 Z M 1.238281 0 "/></g></g></g><g fill="#000000" fill-opacity="1"><g transform="translate(155.253988, 195.749987)"><g/></g></g><g fill="#000000" fill-opacity="1"><g transform="translate(168.892289, 195.749987)"><g><path d="M 24.488281 0 L 31.925781 0 C 36.144531 0 38.933594 -2.851562 38.933594 -6.601562 L 38.933594 -21.699219 L 33.757812 -21.699219 L 33.757812 -6.601562 C 33.757812 -5.515625 32.917969 -4.710938 31.925781 -4.710938 L 24.488281 -4.710938 C 23.496094 -4.710938 22.691406 -5.515625 22.691406 -6.601562 L 22.691406 -21.699219 L 17.484375 -21.699219 L 17.484375 -6.601562 C 17.484375 -5.515625 16.675781 -4.710938 15.683594 -4.710938 L 8.246094 -4.710938 C 7.253906 -4.710938 6.417969 -5.515625 6.417969 -6.601562 L 6.417969 -21.699219 L 1.238281 -21.699219 L 1.238281 -6.601562 C 1.238281 -2.851562 4.03125 0 8.246094 0 L 15.683594 0 C 17.421875 0 18.941406 -0.496094 20.085938 -1.332031 C 21.234375 -0.496094 22.753906 0 24.488281 0 Z M 24.488281 0 "/></g></g></g><g fill="#000000" fill-opacity="1"><g transform="translate(209.063291, 195.749987)"><g><path d="M 8.246094 0 L 29.507812 0 L 29.507812 -4.710938 L 8.246094 -4.710938 C 7.253906 -4.710938 6.417969 -5.515625 6.417969 -6.601562 L 6.417969 -8.523438 L 20.085938 -8.523438 L 20.085938 -13.234375 L 6.417969 -13.234375 L 6.417969 -15.097656 C 6.417969 -16.179688 7.253906 -16.988281 8.246094 -16.988281 L 29.507812 -16.988281 L 29.507812 -21.699219 L 8.246094 -21.699219 C 4.03125 -21.699219 1.238281 -18.847656 1.238281 -15.34375 L 1.238281 -6.355469 C 1.238281 -2.851562 4.03125 0 8.246094 0 Z M 8.246094 0 "/></g></g></g><g fill="#000000" fill-opacity="1"><g transform="translate(239.811481, 195.749987)"><g><path d="M 1.238281 0 L 20.085938 0 L 20.085938 -4.710938 L 13.265625 -4.710938 L 13.265625 -16.988281 L 20.085938 -16.988281 L 20.085938 -21.699219 L 1.238281 -21.699219 L 1.238281 -16.988281 L 8.058594 -16.988281 L 8.058594 -4.710938 L 1.238281 -4.710938 Z M 1.238281 0 "/></g></g></g><g fill="#000000" fill-opacity="1"><g transform="translate(261.136812, 195.749987)"><g><path d="M 17.484375 -15.097656 L 17.484375 0 L 22.691406 0 L 22.691406 -15.097656 C 22.691406 -16.179688 23.496094 -16.988281 24.488281 -16.988281 L 31.925781 -16.988281 C 32.917969 -16.988281 33.757812 -16.179688 33.757812 -15.097656 L 33.757812 0 L 38.933594 0 L 38.933594 -15.097656 C 38.933594 -18.847656 36.144531 -21.699219 31.925781 -21.699219 L 24.488281 -21.699219 C 22.753906 -21.699219 21.234375 -21.203125 20.085938 -20.367188 C 18.941406 -21.203125 17.421875 -21.699219 15.683594 -21.699219 L 8.246094 -21.699219 C 4.03125 -21.699219 1.238281 -18.847656 1.238281 -15.097656 L 1.238281 0 L 6.417969 0 L 6.417969 -15.097656 C 6.417969 -16.179688 7.253906 -16.988281 8.246094 -16.988281 L 15.683594 -16.988281 C 16.675781 -16.988281 17.484375 -16.179688 17.484375 -15.097656 Z M 17.484375 -15.097656 "/></g></g></g><g fill="#000000" fill-opacity="1"><g transform="translate(301.307814, 195.749987)"><g><path d="M 8.246094 0 L 29.507812 0 L 29.507812 -4.710938 L 8.246094 -4.710938 C 7.253906 -4.710938 6.417969 -5.515625 6.417969 -6.601562 L 6.417969 -8.523438 L 20.085938 -8.523438 L 20.085938 -13.234375 L 6.417969 -13.234375 L 6.417969 -15.097656 C 6.417969 -16.179688 7.253906 -16.988281 8.246094 -16.988281 L 29.507812 -16.988281 L 29.507812 -21.699219 L 8.246094 -21.699219 C 4.03125 -21.699219 1.238281 -18.847656 1.238281 -15.34375 L 1.238281 -6.355469 C 1.238281 -2.851562 4.03125 0 8.246094 0 Z M 8.246094 0 "/></g></g></g><g fill="#000000" fill-opacity="1"><g transform="translate(332.055982, 195.749987)"><g><path d="M 1.238281 -21.699219 L 1.238281 0 L 5.953125 0 L 5.953125 -8.523438 L 15.53125 -8.523438 L 15.53125 -6.601562 C 15.53125 -2.851562 18.289062 0 22.503906 0 L 29.507812 0 L 29.507812 -4.710938 L 22.503906 -4.710938 C 21.511719 -4.710938 20.707031 -5.515625 20.707031 -6.601562 L 20.707031 -8.523438 L 22.503906 -8.523438 C 26.71875 -8.523438 29.507812 -11.375 29.507812 -15.097656 C 29.507812 -18.847656 26.71875 -21.699219 22.503906 -21.699219 Z M 5.953125 -13.234375 L 5.953125 -16.988281 L 22.503906 -16.988281 C 23.496094 -16.988281 24.332031 -16.179688 24.332031 -15.097656 C 24.332031 -14.011719 23.496094 -13.234375 22.503906 -13.234375 Z M 5.953125 -13.234375 "/></g></g></g></svg>