<?xml version="1.0" encoding="UTF-8"?>
<svg xmlns="http://www.w3.org/2000/svg" xmlns:xlink="http://www.w3.org/1999/xlink" version="1.1" viewBox="0 0 480.8 90.2">
  <defs>
    <style>
      .cls-1 {
        fill: none;
      }

      .cls-2 {
        fill: #303030;
      }

      .cls-3 {
        clip-path: url(#clippath);
      }
    </style>
    <clipPath id="clippath">
      <rect class="cls-1" x="353.8" width="127" height="90.2"/>
    </clipPath>
  </defs>
  <!-- Generator: Adobe Illustrator 28.7.1, SVG Export Plug-In . SVG Version: 1.2.0 Build 142)  -->
  <g>
    <g id="Layer_1">
      <path class="cls-2" d="M0,60.8v-25.7h25.2c1.7,0,3.1.3,4.4,1,1.3.7,2.2,1.6,2.9,2.8.7,1.2,1,2.5,1,4v10.1c0,1.5-.3,2.8-1,4-.7,1.2-1.6,2.1-2.9,2.8-1.3.7-2.7,1-4.4,1H0ZM6.1,55.2h19.1c.6,0,1.1-.2,1.5-.6.4-.4.6-1,.6-1.6v-10.1c0-.6-.2-1.2-.6-1.6-.4-.4-.9-.6-1.5-.6H6.1v14.5Z"/>
      <path class="cls-2" d="M37.8,42.9c.2-1.5.6-2.8,1.2-4,.7-1.2,1.6-2.1,2.8-2.8,1.2-.7,2.6-1,4.3-1h13.6c1.7,0,3.1.3,4.3,1,1.2.7,2.1,1.6,2.8,2.8.7,1.2,1.1,2.5,1.2,4l1.7,17.9h-6.1l-1-10.1h-19.3l-1,10.1h-6.1l1.7-17.9ZM43.7,45.1h18.3l-.2-2.2c0-.6-.3-1.2-.7-1.6-.4-.4-.9-.6-1.5-.6h-13.6c-.6,0-1.1.2-1.5.6-.4.4-.6,1-.7,1.6l-.2,2.2Z"/>
      <path class="cls-2" d="M81.7,60.8c-1.7,0-3.1-.3-4.3-1-1.2-.7-2.1-1.6-2.8-2.8-.7-1.2-1.1-2.5-1.2-4l-1.7-17.9h6.1l1.7,17.9c0,.6.3,1.2.7,1.6.4.4.9.6,1.5.6h13.6c.6,0,1.1-.2,1.5-.6.4-.4.6-1,.7-1.6l1.7-17.9h6.1l-1.7,17.9c-.1,1.5-.5,2.8-1.2,4-.7,1.2-1.6,2.1-2.8,2.8-1.2.7-2.6,1-4.3,1h-13.6Z"/>
      <path class="cls-2" d="M107.9,60.8v-5.6h8.1v-14.5h-8.1v-5.6h22.3v5.6h-8.1v14.5h8.1v5.6h-22.3Z"/>
      <path class="cls-2" d="M133.1,60.8v-5.6h25.2c.6,0,1.1-.2,1.5-.6.4-.4.6-1,.6-1.6s-.2-1.2-.6-1.6c-.4-.4-.9-.6-1.5-.6h-16.9c-1.7,0-3.1-.3-4.4-1-1.3-.7-2.2-1.6-2.9-2.8-.7-1.2-1-2.5-1-4s.3-2.8,1-4c.7-1.2,1.6-2.1,2.9-2.8,1.3-.7,2.7-1,4.4-1h25.2v5.6h-25.2c-.6,0-1.1.2-1.5.6-.4.4-.6,1-.6,1.6s.2,1.2.6,1.6c.4.4.9.6,1.5.6h16.9c1.7,0,3.1.3,4.4,1,1.3.7,2.2,1.6,2.9,2.8.7,1.2,1,2.5,1,4s-.3,2.8-1,4c-.7,1.2-1.6,2.1-2.9,2.8-1.3.7-2.7,1-4.4,1h-25.2Z"/>
      <path class="cls-2" d="M213.3,60.8c-1,0-2-.1-2.9-.4-.9-.3-1.7-.7-2.4-1.2-.7.5-1.5.9-2.4,1.2-.9.3-1.8.4-2.9.4h-8.8c-1.7,0-3.1-.3-4.4-1-1.3-.7-2.2-1.6-2.9-2.8-.7-1.2-1-2.5-1-4v-17.9h6.1v17.9c0,.6.2,1.2.6,1.6.4.4.9.6,1.5.6h8.8c.6,0,1.1-.2,1.5-.6.4-.4.6-1,.6-1.6v-17.9h6.2v17.9c0,.6.2,1.2.6,1.6.4.4.9.6,1.5.6h8.8c.6,0,1.1-.2,1.5-.6.4-.4.6-1,.6-1.6v-17.9h6.1v17.9c0,1.5-.3,2.8-1,4-.7,1.2-1.6,2.1-2.9,2.8-1.3.7-2.7,1-4.4,1h-8.8Z"/>
      <path class="cls-2" d="M241.6,60.8c-1.7,0-3.1-.3-4.4-1-1.3-.7-2.2-1.6-2.9-2.8-.7-1.2-1-2.4-1-3.8v-10.7c0-1.4.3-2.7,1-3.8.7-1.1,1.6-2,2.9-2.7,1.3-.7,2.7-1,4.4-1h25.2v5.6h-25.2c-.6,0-1.1.2-1.5.6-.4.4-.6,1-.6,1.6v2.2h16.2v5.6h-16.2v2.3c0,.6.2,1.2.6,1.6.4.4.9.6,1.5.6h25.2v5.6h-25.2Z"/>
      <path class="cls-2" d="M269.8,60.8v-5.6h8.1v-14.5h-8.1v-5.6h22.3v5.6h-8.1v14.5h8.1v5.6h-22.3Z"/>
      <path class="cls-2" d="M314.3,42.9c0-.6-.2-1.2-.6-1.6-.4-.4-.9-.6-1.5-.6h-8.8c-.6,0-1.1.2-1.5.6-.4.4-.6,1-.6,1.6v17.9h-6.1v-17.9c0-1.5.3-2.8,1-4,.7-1.2,1.6-2.1,2.9-2.8,1.3-.7,2.7-1,4.4-1h8.8c1,0,2,.1,2.9.4.9.3,1.7.7,2.4,1.2.7-.5,1.5-.9,2.4-1.2.9-.3,1.8-.4,2.9-.4h8.8c1.7,0,3.1.3,4.4,1,1.3.7,2.2,1.6,2.9,2.8.7,1.2,1,2.5,1,4v17.9h-6.1v-17.9c0-.6-.2-1.2-.6-1.6-.4-.4-.9-.6-1.5-.6h-8.8c-.6,0-1.1.2-1.5.6-.4.4-.6,1-.6,1.6v17.9h-6.2v-17.9Z"/>
      <path class="cls-2" d="M351,60.8c-1.7,0-3.1-.3-4.4-1-1.3-.7-2.2-1.6-2.9-2.8-.7-1.2-1-2.4-1-3.8v-10.7c0-1.4.3-2.7,1-3.8.7-1.1,1.6-2,2.9-2.7,1.3-.7,2.7-1,4.4-1h25.2v5.6h-25.2c-.6,0-1.1.2-1.5.6-.4.4-.6,1-.6,1.6v2.2h16.2v5.6h-16.2v2.3c0,.6.2,1.2.6,1.6.4.4.9.6,1.5.6h25.2v5.6h-25.2Z"/>
      <path class="cls-2" d="M379.1,35.1h25.2c1.7,0,3.1.3,4.4,1,1.3.7,2.2,1.6,2.9,2.8.7,1.2,1,2.5,1,4s-.3,2.8-1,4c-.7,1.2-1.6,2.1-2.9,2.8-1.3.7-2.7,1-4.4,1h-2.1v2.3c0,.6.2,1.2.6,1.6.4.4.9.6,1.5.6h8.3v5.6h-8.3c-1.7,0-3.1-.3-4.4-1-1.2-.7-2.2-1.6-2.9-2.8-.7-1.2-1-2.5-1-4v-2.3h-11.4v10.1h-5.6v-25.7ZM384.7,45.1h19.6c.6,0,1.1-.2,1.5-.6.4-.4.6-.9.6-1.6s-.2-1.2-.6-1.6c-.4-.4-.9-.6-1.5-.6h-19.6v4.4Z"/>
      <g class="cls-3">
        <path class="cls-2" d="M373.3,34.3c4.2-3.8,8.9-7.2,14.3-10.5,0,0,.2-.1.3-.2,0,0,0,0,0,0l1.5.6c0,0-.2.1-.3.2-.4.3-.8.6-1.2.9-.4.3-.8.6-1.2.9-.2.2-.5.3-.7.5-.2.1-.4.3-.6.4-.2.1-.4.3-.6.4-.3.3-.6.5-1,.8-.9.8-1.9,1.5-2.8,2.3-1.5,1.3-2.6,2.4-3.9,3.7,1.3,0,.6,0,0,0,.1,0,4.9,0,4.9,0,0,0-.1-.1,0,0,3.7-3.2,7.3-5.6,11.9-8.1l22.5,9c3.3,1.3,5.4,4.4,5.6,7.8h0s-.6,1.5-.6,1.5h0c0,.8-.3,1.5-.5,2.2l-4,9.9h0c0,.5,0,.9,0,1.2l-.6,1.5c-.9,2.3.2,5,2.5,5.9l1.4.6c2.3.9,5-.2,5.9-2.5l1.1-2.6c.3-.4.6-.9.8-1.4l4.1-10.3c2.3-3.3,6.7-4.7,10.6-3.1l15.7,6.3c-7.1,9.1-17.8,17.1-30.3,22.4-12.6,5.3-26.4,7.6-37.8,6.3-11.7-1.4-19.9-6.4-23.2-13.9-.7-1.6-1.1-2.9-1.3-4.7h-1.2c0,0,.2,0,0,0,.2,1.8.7,3.5,1.4,5.2,3.4,8,11.9,13.1,24,14.6,11.6,1.4,25.6-.9,38.4-6.3,12.7-5.4,23.7-13.5,30.9-22.9,0,0,0,0,.1-.1l3.5,1.4c-4.9,5-10.8,9.7-17.6,13.9-5.1,3.2-10.7,6.1-16.5,8.6-12.4,5.3-25.2,8.4-36.8,8.9-17.7.8-30.8-4.5-34.9-14.2-1.2-2.7-1.5-6-1.3-9.1-1.1,0,0,0,0,0h-1.2c-1.3,4.8-1.2,9.4.6,13.6,7.3,17.1,39.7,19.6,72.4,5.6,16-6.8,29.2-16.3,37.6-26.3l6,2.4c2.3.9,5-.2,5.9-2.5l.6-1.4c.1-.3.2-.7.3-1,.2-.2.4-.4.5-.6.2-.3.4-.6.5-1l.6-1.4c.5-1.3.5-2.7,0-4s-1.5-2.2-2.8-2.7l-3.2-1.3c.6-1.1,1.1-2.2,1.5-3.3,2.6-6.4,2.8-12.4.6-17.5-3.6-8.4-13.1-13.6-26.8-14.8h0c0-.7-.2-1.3-.4-1.9-.5-1.3-1.5-2.2-2.8-2.7l-1.4-.6c-1.3-.5-2.7-.5-3.9,0-1.3.5-2.2,1.5-2.7,2.8l-1,2.4c0,0-.2,0-.3,0-4.9.4-10.1,1.3-15.3,2.6-5.2,1.3-10.5,3-15.7,5-.2,0-.4.2-.6.2l-11.6-4.7c-1.3-.5-2.7-.5-3.9,0-1.3.5-2.2,1.5-2.7,2.8l-.6,1.4c-.3.7-.4,1.4-.3,2.2,0,.3,0,.5,0,.8,0,0,0,0,0,0l-.6,1.4c-.8,1.9-.2,4,1.3,5.2-5.8,3.6-10.7,7.3-15.1,11.4M448.9,7.8c.1-.3.2-.6.2-.9h0c6.7.6,12.3,2.1,16.7,4.5,4.4,2.4,7.5,5.6,9.2,9.6,2.1,4.9,1.9,10.5-.6,16.6-.4,1.1-.9,2.2-1.5,3.3h0s-6-2.3-6-2.3c0,0,0,0,0,0,.9-3.8,1-7.3.2-10.7,0-.3-.1-.5-.2-.7,0-.3-.2-.6-.3-.9,0,0,0-.1,0-.2,0-.3-.2-.5-.3-.8,0-.2-.1-.3-.2-.5-.2-.5-.4-1-.7-1.4,0-.2-.2-.4-.3-.6-3.2-5.7-9.3-9.7-17.6-11.7l1.3-3.4ZM465.3,37.8l-16.6-6.7c-3.6-1.4-5.7-5-5.2-8.8h0c0-.8.3-1.5.6-2.1l1.6-3.9c9.1,2.1,15.5,6.6,18.3,13.1,1.1,2.6,1.6,5.4,1.4,8.4ZM436.6,7l-1.1,2.8h-.3c-.6,0-1.1,0-1.6,0-.5,0-1,0-1.6,0-.3,0-.5,0-.8,0-.3,0-.5,0-.8,0-1.5,0-3,.2-4.5.5-.2,0-.4,0-.6,0-.3,0-.6,0-.9.1-.3,0-.5,0-.8.1-.3,0-.6,0-.9.2-1.1.2-2.3.4-3.4.7-.6.1-1.1.2-1.7.4-1,.3-2,.5-3,.8-.3,0-.5.2-.8.2-.2,0-.4.1-.6.2-.2,0-.5.2-.8.2-.3,0-.6.2-.9.3-.3,0-.6.2-.9.3-.3,0-.5.2-.8.3-.2,0-.4.1-.5.2-.2,0-.4.1-.6.2s-.4.2-.6.2l-1.3-.5c10-3.9,20.3-6.4,29.9-7.3ZM433.3,15.1l-.3.7c-.8,2.1-2.4,3.7-4.5,4.6-2.1.9-4.3.9-6.4,0l-7.1-2.9c6.2-1.6,12.4-2.4,18.3-2.5ZM478.9,48.8l-.6,1.4c-.1.3-.3.5-.4.8-1.1,1.5-3.1,2.1-4.8,1.4l-4.4-1.7-.9-.4-.6-.2-5.2-2.1-.5-.2-17.1-6.9c-4.9-2-10.4.4-12.4,5.3l-5,12.4c-.8,2-3.2,3-5.2,2.2l-1.4-.6c-1.5-.6-2.5-2-2.5-3.6l3.9-9.7c.3-.8.5-1.6.6-2.3l.8-1.9c1-2.4.9-4.9,0-7.3-1-2.3-2.8-4.1-5.2-5.1l-18.2-7.3-.7-.3-.7-.3-2.4-1-.7-.3-.7-.3-2-.8-.7-.3-2.5-1c-1.4-.6-2.4-1.9-2.5-3.5,0-.6,0-1.1.3-1.7l.6-1.4c.4-1,1.2-1.8,2.1-2.2,1-.4,2.1-.4,3.1,0l10.6,4.2.7.3,2,.8.8.3.8.3,3.5,1.4.8.3.9.4,8.5,3.4c2.4,1,4.9.9,7.3,0,2.3-1,4.1-2.9,5.1-5.2l.5-1.1.2-.6.2-.6,1.3-3.1.2-.6.2-.6,1.4-3.5.2-.6.8-1.9c.8-2,3.2-3,5.2-2.2l1.4.6c1,.4,1.8,1.2,2.2,2.1.2.5.3.9.3,1.4,0,.2,0,.4,0,.6,0,.4-.1.7-.3,1.1l-1.4,3.5-.2.5-.2.5-1.3,3.1-.2.5-.2.5-1.5,3.7c-.3.8-.5,1.6-.6,2.4h0c-.5,4.3,1.9,8.3,5.9,9.9l17,6.8.5.2h0s.5.2.5.2l.5.2,6.3,2.5.5.2h0s3.2,1.3,3.2,1.3c1,.4,1.8,1.2,2.2,2.1.4,1,.4,2.1,0,3.1Z"/>
      </g>
      <line class="cls-2" x1="371.5" y1="34.5" x2="373.2" y2="34.5"/>
    </g>
  </g>
</svg>