<svg xmlns="http://www.w3.org/2000/svg" xmlns:xlink="http://www.w3.org/1999/xlink" width="500" zoomAndPan="magnify" viewBox="0 0 375 374.999991" height="500" preserveAspectRatio="xMidYMid meet" version="1.0"><defs><g/><clipPath id="931d2d3107"><path d="M 248 141 L 365 141 L 365 214 L 248 214 Z M 248 141 " clip-rule="nonzero"/></clipPath><clipPath id="6f9b6f8c76"><path d="M 272.425781 122.488281 L 374.902344 165.148438 L 342.90625 242.007812 L 240.429688 199.34375 Z M 272.425781 122.488281 " clip-rule="nonzero"/></clipPath><clipPath id="e3a63918b4"><path d="M 272.425781 122.488281 L 374.902344 165.148438 L 342.90625 242.007812 L 240.429688 199.34375 Z M 272.425781 122.488281 " clip-rule="nonzero"/></clipPath></defs><g clip-path="url(#931d2d3107)"><g clip-path="url(#6f9b6f8c76)"><g clip-path="url(#e3a63918b4)"><path fill="#303030" d="M 359.28125 201.703125 C 359.277344 200.503906 358.785156 199.386719 357.933594 198.554688 L 355.804688 196.472656 C 356.648438 195.769531 357.433594 195.039062 358.144531 194.304688 C 362.351562 190.019531 364.566406 185.214844 364.527344 180.355469 C 364.46875 172.378906 358.539062 164.925781 347.8125 159.382812 C 347.8125 159.382812 347.792969 159.371094 347.792969 159.371094 C 348.011719 158.839844 348.109375 158.257812 348.109375 157.683594 C 348.105469 156.484375 347.632812 155.378906 346.761719 154.535156 L 345.8125 153.589844 C 344.964844 152.753906 343.839844 152.289062 342.632812 152.3125 C 341.433594 152.316406 340.316406 152.808594 339.480469 153.660156 L 337.859375 155.308594 C 337.78125 155.277344 337.710938 155.269531 337.628906 155.238281 C 333.480469 153.917969 329.003906 152.871094 324.34375 152.152344 C 319.683594 151.433594 314.84375 151.023438 309.941406 150.945312 C 309.773438 150.949219 309.582031 150.941406 309.414062 150.945312 L 301.589844 143.207031 C 300.738281 142.371094 299.617188 141.90625 298.40625 141.929688 C 297.207031 141.933594 296.101562 142.40625 295.257812 143.277344 L 294.3125 144.226562 C 293.851562 144.703125 293.5 145.253906 293.296875 145.863281 C 293.222656 146.097656 293.15625 146.308594 293.105469 146.550781 C 293.097656 146.570312 293.074219 146.5625 293.066406 146.582031 L 292.121094 147.53125 C 290.871094 148.808594 290.65625 150.707031 291.445312 152.207031 C 274.542969 154.875 260.703125 161.648438 254.359375 170.316406 C 253.738281 171.183594 253.171875 172.074219 252.6875 172.953125 C 249.964844 176.441406 248.484375 180.234375 248.5 184.21875 C 248.636719 200.472656 274.027344 213.441406 305.238281 213.183594 C 320.53125 213.054688 334.375 209.785156 344.496094 204.582031 L 348.507812 208.53125 C 350.074219 210.066406 352.601562 210.039062 354.136719 208.476562 L 355.085938 207.527344 C 355.296875 207.304688 355.488281 207.074219 355.640625 206.824219 C 355.851562 206.722656 356.0625 206.617188 356.261719 206.484375 C 356.527344 206.308594 356.78125 206.101562 357.023438 205.867188 L 357.96875 204.917969 C 358.816406 204.027344 359.285156 202.902344 359.28125 201.703125 Z M 359.328125 169.472656 C 362.085938 172.871094 363.519531 176.558594 363.542969 180.355469 C 363.578125 184.996094 361.527344 189.460938 357.453125 193.609375 C 356.746094 194.324219 355.964844 195.050781 355.148438 195.742188 L 355.113281 195.773438 L 351.082031 191.820312 C 351.089844 191.800781 351.097656 191.777344 351.125 191.765625 C 353.15625 189.019531 354.417969 186.164062 354.886719 183.195312 C 354.929688 182.976562 354.953125 182.746094 354.96875 182.535156 C 355.011719 182.265625 355.023438 182.007812 355.042969 181.726562 C 355.039062 181.679688 355.054688 181.636719 355.050781 181.589844 C 355.0625 181.328125 355.066406 181.089844 355.070312 180.851562 C 355.082031 180.714844 355.070312 180.566406 355.082031 180.425781 C 355.078125 179.96875 355.058594 179.503906 355.003906 179.054688 C 354.984375 178.875 354.96875 178.679688 354.949219 178.5 C 354.257812 172.847656 350.71875 167.539062 344.609375 163.101562 L 346.820312 160.835938 C 347.015625 160.65625 347.179688 160.4375 347.316406 160.226562 C 347.335938 160.238281 347.335938 160.238281 347.355469 160.246094 C 352.558594 162.9375 356.574219 166.074219 359.328125 169.472656 Z M 337.425781 170.800781 L 337.433594 170.78125 C 337.742188 170.214844 338.144531 169.710938 338.597656 169.25 L 341.164062 166.652344 C 347.863281 171.40625 351.519531 177.242188 351.578125 183.425781 C 351.601562 185.902344 351.046875 188.332031 349.921875 190.691406 L 338.714844 179.675781 C 336.320312 177.3125 335.800781 173.667969 337.425781 170.800781 Z M 331.699219 161.539062 L 331.234375 162.015625 C 329.863281 163.410156 328.023438 164.203125 326.050781 164.21875 C 324.082031 164.238281 322.234375 163.492188 320.820312 162.113281 L 316.050781 157.394531 C 321.609375 158.199219 326.941406 159.605469 331.699219 161.539062 Z M 337.089844 156.066406 L 335.265625 157.917969 L 335 157.808594 C 334.550781 157.621094 334.121094 157.445312 333.664062 157.277344 C 333.226562 157.117188 332.816406 156.949219 332.378906 156.789062 C 332.15625 156.695312 331.941406 156.632812 331.710938 156.558594 C 331.476562 156.484375 331.273438 156.402344 331.039062 156.328125 C 329.800781 155.910156 328.523438 155.519531 327.230469 155.175781 C 327.058594 155.125 326.867188 155.070312 326.695312 155.023438 C 326.433594 154.960938 326.171875 154.898438 325.917969 154.820312 C 325.675781 154.765625 325.460938 154.703125 325.222656 154.648438 C 324.980469 154.597656 324.71875 154.535156 324.476562 154.480469 C 323.488281 154.261719 322.492188 154.0625 321.46875 153.878906 C 320.957031 153.785156 320.464844 153.699219 319.945312 153.625 C 319.042969 153.488281 318.160156 153.363281 317.25 153.246094 C 317 153.214844 316.769531 153.191406 316.519531 153.160156 C 316.339844 153.132812 316.152344 153.125 315.992188 153.105469 C 315.761719 153.082031 315.53125 153.058594 315.300781 153.035156 C 315.050781 153.003906 314.773438 152.984375 314.515625 152.972656 C 314.234375 152.949219 313.957031 152.929688 313.675781 152.910156 C 313.425781 152.878906 313.1875 152.875 312.929688 152.863281 C 312.769531 152.84375 312.601562 152.84375 312.441406 152.828125 C 312.253906 152.820312 312.09375 152.800781 311.902344 152.792969 C 311.714844 152.789062 311.527344 152.78125 311.34375 152.753906 L 310.460938 151.882812 C 319.886719 152.09375 329.089844 153.527344 337.089844 156.066406 Z M 264.644531 170.597656 C 264.644531 170.597656 264.652344 170.574219 264.644531 170.597656 C 271.558594 163.601562 283.210938 158.75 296.273438 157.191406 L 311.425781 172.074219 C 313.648438 174.273438 314.308594 177.46875 313.339844 180.253906 L 313.332031 180.273438 L 312.339844 181.273438 L 312.3125 181.335938 C 312.003906 181.902344 311.605469 182.40625 311.171875 182.875 L 304.589844 189.527344 L 304.558594 189.609375 C 304.429688 189.914062 304.320312 190.230469 304.265625 190.542969 L 303.300781 191.53125 C 301.761719 193.09375 301.789062 195.621094 303.355469 197.160156 L 304.300781 198.105469 C 305.867188 199.644531 308.394531 199.617188 309.929688 198.050781 L 311.683594 196.265625 C 312.082031 196.046875 312.460938 195.773438 312.816406 195.441406 L 319.632812 188.503906 C 322.636719 186.640625 326.636719 186.988281 329.277344 189.570312 L 339.875 199.972656 C 331.078125 204.988281 319.699219 207.796875 307.777344 207.890625 C 295.785156 207.976562 283.859375 205.195312 275.074219 200.21875 C 266.074219 195.128906 261.085938 188.355469 261.019531 181.140625 C 260.976562 177.503906 262.199219 173.9375 264.644531 170.597656 Z M 291.804688 153.125 C 291.902344 153.117188 292.011719 153.089844 292.089844 153.078125 C 292.101562 153.105469 292.140625 153.121094 292.152344 153.152344 L 293.144531 154.113281 C 293.035156 154.140625 292.9375 154.148438 292.828125 154.175781 C 292.410156 154.265625 291.960938 154.363281 291.539062 154.453125 C 291.121094 154.542969 290.691406 154.652344 290.261719 154.757812 C 290.027344 154.804688 289.785156 154.871094 289.539062 154.9375 C 289.355469 154.980469 289.140625 155.035156 288.945312 155.097656 C 288.761719 155.140625 288.546875 155.195312 288.351562 155.257812 C 288.003906 155.351562 287.671875 155.453125 287.320312 155.546875 C 286.3125 155.847656 285.300781 156.144531 284.324219 156.480469 C 278.128906 158.574219 272.84375 161.429688 268.773438 164.816406 C 268.558594 164.988281 268.363281 165.171875 268.167969 165.355469 C 267.972656 165.535156 267.757812 165.710938 267.5625 165.890625 C 267.523438 165.925781 267.484375 165.957031 267.457031 165.96875 C 267.113281 166.28125 266.785156 166.601562 266.453125 166.941406 C 265.46875 167.921875 264.609375 168.953125 263.839844 169.996094 L 263.785156 170.070312 C 261.222656 173.582031 259.953125 177.316406 259.972656 181.183594 C 260.023438 188.777344 265.203125 195.84375 274.511719 201.109375 C 283.460938 206.152344 295.566406 209.011719 307.707031 208.917969 C 319.851562 208.820312 331.472656 205.941406 340.417969 200.800781 C 340.453125 200.765625 340.503906 200.765625 340.542969 200.730469 L 342.871094 203.019531 C 337.238281 205.441406 330.886719 207.230469 323.964844 208.375 C 318.71875 209.234375 313.257812 209.691406 307.726562 209.738281 C 295.871094 209.835938 284.550781 208.019531 274.917969 204.515625 C 260.316406 199.179688 251.550781 190.472656 251.488281 181.246094 C 251.460938 177.6875 252.667969 174.210938 255.105469 170.890625 C 261.367188 162.402344 275.058594 155.761719 291.804688 153.125 Z M 357.285156 204.203125 L 356.335938 205.152344 C 356.164062 205.339844 355.953125 205.496094 355.746094 205.648438 C 354.378906 206.515625 352.5625 206.335938 351.402344 205.207031 L 348.457031 202.324219 L 347.859375 201.742188 L 347.488281 201.371094 L 343.988281 197.925781 L 343.625 197.582031 L 332.132812 186.28125 C 328.855469 183.046875 323.5625 183.09375 320.328125 186.375 L 312.09375 194.757812 C 310.75 196.140625 308.519531 196.148438 307.160156 194.8125 L 306.210938 193.867188 C 305.1875 192.867188 304.890625 191.398438 305.414062 190.085938 L 311.859375 183.519531 C 312.359375 183.007812 312.796875 182.421875 313.140625 181.824219 L 314.382812 180.566406 C 315.957031 178.972656 316.785156 176.871094 316.777344 174.640625 C 316.773438 172.410156 315.863281 170.332031 314.289062 168.765625 L 302.042969 156.742188 L 301.5625 156.277344 L 301.085938 155.816406 L 299.4375 154.195312 L 299 153.746094 L 298.539062 153.292969 L 297.199219 151.96875 L 296.742188 151.515625 L 295.058594 149.855469 C 294.089844 148.902344 293.753906 147.46875 294.21875 146.175781 C 294.394531 145.695312 294.664062 145.28125 295.015625 144.902344 L 295.960938 143.953125 C 296.617188 143.292969 297.496094 142.914062 298.425781 142.917969 C 299.367188 142.902344 300.246094 143.269531 300.90625 143.925781 L 308.035156 150.921875 L 308.523438 151.414062 L 309.886719 152.746094 L 310.398438 153.246094 L 310.90625 153.746094 L 313.269531 156.070312 L 313.835938 156.617188 L 314.410156 157.191406 L 320.144531 162.816406 C 321.742188 164.390625 323.839844 165.214844 326.070312 165.210938 C 328.3125 165.183594 330.382812 164.296875 331.949219 162.722656 L 332.691406 161.976562 L 333.070312 161.582031 L 333.441406 161.210938 L 335.507812 159.121094 L 336.25 158.378906 L 338.535156 156.046875 L 338.917969 155.652344 L 340.203125 154.34375 C 341.566406 152.972656 343.777344 152.957031 345.140625 154.289062 L 346.085938 155.234375 C 346.746094 155.894531 347.125 156.769531 347.128906 157.683594 C 347.140625 158.117188 347.058594 158.539062 346.917969 158.9375 C 346.859375 159.078125 346.789062 159.242188 346.710938 159.378906 C 346.5625 159.675781 346.363281 159.925781 346.121094 160.164062 L 343.785156 162.546875 L 343.445312 162.90625 L 343.101562 163.265625 L 341.035156 165.355469 L 340.695312 165.714844 L 340.351562 166.074219 L 337.90625 168.554688 C 337.398438 169.085938 336.941406 169.664062 336.578125 170.304688 L 336.570312 170.324219 C 334.753906 173.59375 335.335938 177.71875 338.007812 180.339844 L 349.4375 191.566406 L 349.757812 191.890625 L 349.789062 191.929688 L 350.109375 192.253906 L 350.46875 192.597656 L 354.703125 196.753906 L 355.066406 197.097656 L 355.097656 197.136719 L 357.257812 199.257812 C 357.917969 199.914062 358.296875 200.789062 358.292969 201.722656 C 358.285156 202.65625 357.941406 203.542969 357.285156 204.203125 Z M 357.285156 204.203125 " fill-opacity="1" fill-rule="nonzero"/></g></g></g><g fill="#303030" fill-opacity="1"><g transform="translate(0.0000045, 189.736821)"><g><path d="M 1.109375 0 L 1.109375 -19.4375 L 20.15625 -19.4375 C 21.414062 -19.4375 22.515625 -19.175781 23.453125 -18.65625 C 24.398438 -18.132812 25.132812 -17.429688 25.65625 -16.546875 C 26.175781 -15.660156 26.4375 -14.648438 26.4375 -13.515625 L 26.4375 -5.90625 C 26.4375 -4.800781 26.175781 -3.800781 25.65625 -2.90625 C 25.132812 -2.007812 24.398438 -1.300781 23.453125 -0.78125 C 22.515625 -0.257812 21.414062 0 20.15625 0 Z M 5.75 -4.21875 L 20.15625 -4.21875 C 20.601562 -4.21875 20.988281 -4.378906 21.3125 -4.703125 C 21.632812 -5.023438 21.796875 -5.425781 21.796875 -5.90625 L 21.796875 -13.515625 C 21.796875 -14.003906 21.632812 -14.410156 21.3125 -14.734375 C 20.988281 -15.054688 20.601562 -15.21875 20.15625 -15.21875 L 5.75 -15.21875 Z M 5.75 -4.21875 "/></g></g></g><g fill="#303030" fill-opacity="1"><g transform="translate(27.549093, 189.736821)"><g><path d="M 2.109375 -13.515625 C 2.222656 -14.648438 2.53125 -15.660156 3.03125 -16.546875 C 3.53125 -17.429688 4.226562 -18.132812 5.125 -18.65625 C 6.019531 -19.175781 7.097656 -19.4375 8.359375 -19.4375 L 18.625 -19.4375 C 19.882812 -19.4375 20.960938 -19.175781 21.859375 -18.65625 C 22.765625 -18.132812 23.46875 -17.429688 23.96875 -16.546875 C 24.476562 -15.660156 24.78125 -14.648438 24.875 -13.515625 L 26.15625 0 L 21.515625 0 L 20.796875 -7.640625 L 6.1875 -7.640625 L 5.46875 0 L 0.828125 0 Z M 6.578125 -11.859375 L 20.40625 -11.859375 L 20.234375 -13.515625 C 20.203125 -14.003906 20.035156 -14.410156 19.734375 -14.734375 C 19.441406 -15.054688 19.070312 -15.21875 18.625 -15.21875 L 8.359375 -15.21875 C 7.910156 -15.21875 7.535156 -15.054688 7.234375 -14.734375 C 6.941406 -14.410156 6.78125 -14.003906 6.75 -13.515625 Z M 6.578125 -11.859375 "/></g></g></g><g fill="#303030" fill-opacity="1"><g transform="translate(54.542754, 189.736821)"><g><path d="M 8.359375 0 C 7.097656 0 6.019531 -0.257812 5.125 -0.78125 C 4.226562 -1.300781 3.53125 -2.007812 3.03125 -2.90625 C 2.53125 -3.800781 2.222656 -4.800781 2.109375 -5.90625 L 0.828125 -19.4375 L 5.46875 -19.4375 L 6.75 -5.90625 C 6.78125 -5.425781 6.941406 -5.023438 7.234375 -4.703125 C 7.535156 -4.378906 7.910156 -4.21875 8.359375 -4.21875 L 18.625 -4.21875 C 19.070312 -4.21875 19.441406 -4.378906 19.734375 -4.703125 C 20.035156 -5.023438 20.203125 -5.425781 20.234375 -5.90625 L 21.515625 -19.4375 L 26.15625 -19.4375 L 24.875 -5.90625 C 24.78125 -4.800781 24.476562 -3.800781 23.96875 -2.90625 C 23.46875 -2.007812 22.765625 -1.300781 21.859375 -0.78125 C 20.960938 -0.257812 19.882812 0 18.625 0 Z M 8.359375 0 "/></g></g></g><g fill="#303030" fill-opacity="1"><g transform="translate(81.536414, 189.736821)"><g><path d="M 1.109375 0 L 1.109375 -4.21875 L 7.21875 -4.21875 L 7.21875 -15.21875 L 1.109375 -15.21875 L 1.109375 -19.4375 L 17.984375 -19.4375 L 17.984375 -15.21875 L 11.890625 -15.21875 L 11.890625 -4.21875 L 17.984375 -4.21875 L 17.984375 0 Z M 1.109375 0 "/></g></g></g><g fill="#303030" fill-opacity="1"><g transform="translate(100.643034, 189.736821)"><g><path d="M 1.109375 0 L 1.109375 -4.21875 L 20.15625 -4.21875 C 20.601562 -4.21875 20.988281 -4.378906 21.3125 -4.703125 C 21.632812 -5.023438 21.796875 -5.425781 21.796875 -5.90625 C 21.796875 -6.40625 21.632812 -6.816406 21.3125 -7.140625 C 20.988281 -7.472656 20.601562 -7.640625 20.15625 -7.640625 L 7.390625 -7.640625 C 6.128906 -7.640625 5.023438 -7.894531 4.078125 -8.40625 C 3.140625 -8.925781 2.410156 -9.628906 1.890625 -10.515625 C 1.367188 -11.410156 1.109375 -12.410156 1.109375 -13.515625 C 1.109375 -14.648438 1.367188 -15.660156 1.890625 -16.546875 C 2.410156 -17.429688 3.140625 -18.132812 4.078125 -18.65625 C 5.023438 -19.175781 6.128906 -19.4375 7.390625 -19.4375 L 26.4375 -19.4375 L 26.4375 -15.21875 L 7.390625 -15.21875 C 6.941406 -15.21875 6.554688 -15.054688 6.234375 -14.734375 C 5.910156 -14.410156 5.75 -14.003906 5.75 -13.515625 C 5.75 -13.035156 5.910156 -12.640625 6.234375 -12.328125 C 6.554688 -12.015625 6.941406 -11.859375 7.390625 -11.859375 L 20.15625 -11.859375 C 21.414062 -11.859375 22.515625 -11.597656 23.453125 -11.078125 C 24.398438 -10.554688 25.132812 -9.847656 25.65625 -8.953125 C 26.175781 -8.054688 26.4375 -7.039062 26.4375 -5.90625 C 26.4375 -4.800781 26.175781 -3.800781 25.65625 -2.90625 C 25.132812 -2.007812 24.398438 -1.300781 23.453125 -0.78125 C 22.515625 -0.257812 21.414062 0 20.15625 0 Z M 1.109375 0 "/></g></g></g><g fill="#303030" fill-opacity="1"><g transform="translate(128.192122, 189.736821)"><g/></g></g><g fill="#303030" fill-opacity="1"><g transform="translate(140.411472, 189.736821)"><g><path d="M 21.9375 0 C 21.15625 0 20.429688 -0.101562 19.765625 -0.3125 C 19.097656 -0.53125 18.503906 -0.820312 17.984375 -1.1875 C 17.472656 -0.820312 16.882812 -0.53125 16.21875 -0.3125 C 15.550781 -0.101562 14.828125 0 14.046875 0 L 7.390625 0 C 6.128906 0 5.023438 -0.257812 4.078125 -0.78125 C 3.140625 -1.300781 2.410156 -2.007812 1.890625 -2.90625 C 1.367188 -3.800781 1.109375 -4.800781 1.109375 -5.90625 L 1.109375 -19.4375 L 5.75 -19.4375 L 5.75 -5.90625 C 5.75 -5.425781 5.910156 -5.023438 6.234375 -4.703125 C 6.554688 -4.378906 6.941406 -4.21875 7.390625 -4.21875 L 14.046875 -4.21875 C 14.492188 -4.21875 14.875 -4.378906 15.1875 -4.703125 C 15.5 -5.023438 15.65625 -5.425781 15.65625 -5.90625 L 15.65625 -19.4375 L 20.328125 -19.4375 L 20.328125 -5.90625 C 20.328125 -5.425781 20.484375 -5.023438 20.796875 -4.703125 C 21.109375 -4.378906 21.488281 -4.21875 21.9375 -4.21875 L 28.59375 -4.21875 C 29.039062 -4.21875 29.425781 -4.378906 29.75 -4.703125 C 30.070312 -5.023438 30.234375 -5.425781 30.234375 -5.90625 L 30.234375 -19.4375 L 34.875 -19.4375 L 34.875 -5.90625 C 34.875 -4.800781 34.613281 -3.800781 34.09375 -2.90625 C 33.570312 -2.007812 32.835938 -1.300781 31.890625 -0.78125 C 30.953125 -0.257812 29.851562 0 28.59375 0 Z M 21.9375 0 "/></g></g></g><g fill="#303030" fill-opacity="1"><g transform="translate(176.403019, 189.736821)"><g><path d="M 7.390625 0 C 6.128906 0 5.023438 -0.253906 4.078125 -0.765625 C 3.140625 -1.273438 2.410156 -1.960938 1.890625 -2.828125 C 1.367188 -3.703125 1.109375 -4.65625 1.109375 -5.6875 L 1.109375 -13.75 C 1.109375 -14.800781 1.367188 -15.753906 1.890625 -16.609375 C 2.410156 -17.472656 3.140625 -18.160156 4.078125 -18.671875 C 5.023438 -19.179688 6.128906 -19.4375 7.390625 -19.4375 L 26.4375 -19.4375 L 26.4375 -15.21875 L 7.390625 -15.21875 C 6.941406 -15.21875 6.554688 -15.054688 6.234375 -14.734375 C 5.910156 -14.410156 5.75 -14.003906 5.75 -13.515625 L 5.75 -11.859375 L 17.984375 -11.859375 L 17.984375 -7.640625 L 5.75 -7.640625 L 5.75 -5.90625 C 5.75 -5.425781 5.910156 -5.023438 6.234375 -4.703125 C 6.554688 -4.378906 6.941406 -4.21875 7.390625 -4.21875 L 26.4375 -4.21875 L 26.4375 0 Z M 7.390625 0 "/></g></g></g><g fill="#303030" fill-opacity="1"><g transform="translate(203.952118, 189.736821)"><g><path d="M 1.109375 0 L 1.109375 -4.21875 L 7.21875 -4.21875 L 7.21875 -15.21875 L 1.109375 -15.21875 L 1.109375 -19.4375 L 17.984375 -19.4375 L 17.984375 -15.21875 L 11.890625 -15.21875 L 11.890625 -4.21875 L 17.984375 -4.21875 L 17.984375 0 Z M 1.109375 0 "/></g></g></g><g fill="#303030" fill-opacity="1"><g transform="translate(223.058728, 189.736821)"><g><path d="M 15.65625 -13.515625 C 15.65625 -14.003906 15.5 -14.410156 15.1875 -14.734375 C 14.875 -15.054688 14.492188 -15.21875 14.046875 -15.21875 L 7.390625 -15.21875 C 6.941406 -15.21875 6.554688 -15.054688 6.234375 -14.734375 C 5.910156 -14.410156 5.75 -14.003906 5.75 -13.515625 L 5.75 0 L 1.109375 0 L 1.109375 -13.515625 C 1.109375 -14.648438 1.367188 -15.660156 1.890625 -16.546875 C 2.410156 -17.429688 3.140625 -18.132812 4.078125 -18.65625 C 5.023438 -19.175781 6.128906 -19.4375 7.390625 -19.4375 L 14.046875 -19.4375 C 14.828125 -19.4375 15.550781 -19.328125 16.21875 -19.109375 C 16.882812 -18.898438 17.472656 -18.609375 17.984375 -18.234375 C 18.503906 -18.609375 19.097656 -18.898438 19.765625 -19.109375 C 20.429688 -19.328125 21.15625 -19.4375 21.9375 -19.4375 L 28.59375 -19.4375 C 29.851562 -19.4375 30.953125 -19.175781 31.890625 -18.65625 C 32.835938 -18.132812 33.570312 -17.429688 34.09375 -16.546875 C 34.613281 -15.660156 34.875 -14.648438 34.875 -13.515625 L 34.875 0 L 30.234375 0 L 30.234375 -13.515625 C 30.234375 -14.003906 30.070312 -14.410156 29.75 -14.734375 C 29.425781 -15.054688 29.039062 -15.21875 28.59375 -15.21875 L 21.9375 -15.21875 C 21.488281 -15.21875 21.109375 -15.054688 20.796875 -14.734375 C 20.484375 -14.410156 20.328125 -14.003906 20.328125 -13.515625 L 20.328125 0 L 15.65625 0 Z M 15.65625 -13.515625 "/></g></g></g><g fill="#303030" fill-opacity="1"><g transform="translate(259.050275, 189.736821)"><g><path d="M 7.390625 0 C 6.128906 0 5.023438 -0.253906 4.078125 -0.765625 C 3.140625 -1.273438 2.410156 -1.960938 1.890625 -2.828125 C 1.367188 -3.703125 1.109375 -4.65625 1.109375 -5.6875 L 1.109375 -13.75 C 1.109375 -14.800781 1.367188 -15.753906 1.890625 -16.609375 C 2.410156 -17.472656 3.140625 -18.160156 4.078125 -18.671875 C 5.023438 -19.179688 6.128906 -19.4375 7.390625 -19.4375 L 26.4375 -19.4375 L 26.4375 -15.21875 L 7.390625 -15.21875 C 6.941406 -15.21875 6.554688 -15.054688 6.234375 -14.734375 C 5.910156 -14.410156 5.75 -14.003906 5.75 -13.515625 L 5.75 -11.859375 L 17.984375 -11.859375 L 17.984375 -7.640625 L 5.75 -7.640625 L 5.75 -5.90625 C 5.75 -5.425781 5.910156 -5.023438 6.234375 -4.703125 C 6.554688 -4.378906 6.941406 -4.21875 7.390625 -4.21875 L 26.4375 -4.21875 L 26.4375 0 Z M 7.390625 0 "/></g></g></g><g fill="#303030" fill-opacity="1"><g transform="translate(286.599354, 189.736821)"><g><path d="M 1.109375 -19.4375 L 20.15625 -19.4375 C 21.414062 -19.4375 22.515625 -19.175781 23.453125 -18.65625 C 24.398438 -18.132812 25.132812 -17.429688 25.65625 -16.546875 C 26.175781 -15.660156 26.4375 -14.648438 26.4375 -13.515625 C 26.4375 -12.410156 26.175781 -11.410156 25.65625 -10.515625 C 25.132812 -9.628906 24.398438 -8.925781 23.453125 -8.40625 C 22.515625 -7.894531 21.414062 -7.640625 20.15625 -7.640625 L 18.546875 -7.640625 L 18.546875 -5.90625 C 18.546875 -5.425781 18.703125 -5.023438 19.015625 -4.703125 C 19.328125 -4.378906 19.707031 -4.21875 20.15625 -4.21875 L 26.4375 -4.21875 L 26.4375 0 L 20.15625 0 C 18.894531 0 17.796875 -0.257812 16.859375 -0.78125 C 15.929688 -1.300781 15.207031 -2.007812 14.6875 -2.90625 C 14.164062 -3.800781 13.90625 -4.800781 13.90625 -5.90625 L 13.90625 -7.640625 L 5.328125 -7.640625 L 5.328125 0 L 1.109375 0 Z M 5.328125 -11.859375 L 20.15625 -11.859375 C 20.601562 -11.859375 20.988281 -12.015625 21.3125 -12.328125 C 21.632812 -12.640625 21.796875 -13.035156 21.796875 -13.515625 C 21.796875 -14.003906 21.632812 -14.410156 21.3125 -14.734375 C 20.988281 -15.054688 20.601562 -15.21875 20.15625 -15.21875 L 5.328125 -15.21875 Z M 5.328125 -11.859375 "/></g></g></g></svg>