<svg xmlns="http://www.w3.org/2000/svg" version="1.1" xmlns:xlink="http://www.w3.org/1999/xlink" xmlns:svgjs="http://svgjs.dev/svgjs" viewBox="0 0 1422 800"><g stroke-width="2.5" stroke="#d40c0c" fill="none" stroke-linecap="round"><path d="M 0 1110 Q 355.5 55 711 400 Q 1066.5 745 1422 1110"></path><path d="M 0 1100 Q 355.5 55 711 400 Q 1066.5 745 1422 1100"></path><path d="M 0 1090 Q 355.5 55 711 400 Q 1066.5 745 1422 1090"></path><path d="M 0 1080 Q 355.5 55 711 400 Q 1066.5 745 1422 1080"></path><path d="M 0 1070 Q 355.5 55 711 400 Q 1066.5 745 1422 1070"></path><path d="M 0 1060 Q 355.5 55 711 400 Q 1066.5 745 1422 1060"></path><path d="M 0 1050 Q 355.5 55 711 400 Q 1066.5 745 1422 1050"></path><path d="M 0 1040 Q 355.5 55 711 400 Q 1066.5 745 1422 1040"></path><path d="M 0 1030 Q 355.5 55 711 400 Q 1066.5 745 1422 1030"></path><path d="M 0 1020 Q 355.5 55 711 400 Q 1066.5 745 1422 1020"></path><path d="M 0 1010 Q 355.5 55 711 400 Q 1066.5 745 1422 1010"></path><path d="M 0 1000 Q 355.5 55 711 400 Q 1066.5 745 1422 1000"></path><path d="M 0 990 Q 355.5 55 711 400 Q 1066.5 745 1422 990"></path><path d="M 0 980 Q 355.5 55 711 400 Q 1066.5 745 1422 980"></path><path d="M 0 970 Q 355.5 55 711 400 Q 1066.5 745 1422 970"></path><path d="M 0 960 Q 355.5 55 711 400 Q 1066.5 745 1422 960"></path><path d="M 0 950 Q 355.5 55 711 400 Q 1066.5 745 1422 950"></path><path d="M 0 940 Q 355.5 55 711 400 Q 1066.5 745 1422 940"></path><path d="M 0 930 Q 355.5 55 711 400 Q 1066.5 745 1422 930"></path><path d="M 0 920 Q 355.5 55 711 400 Q 1066.5 745 1422 920"></path><path d="M 0 910 Q 355.5 55 711 400 Q 1066.5 745 1422 910"></path><path d="M 0 900 Q 355.5 55 711 400 Q 1066.5 745 1422 900"></path><path d="M 0 890 Q 355.5 55 711 400 Q 1066.5 745 1422 890"></path><path d="M 0 880 Q 355.5 55 711 400 Q 1066.5 745 1422 880"></path><path d="M 0 870 Q 355.5 55 711 400 Q 1066.5 745 1422 870"></path><path d="M 0 860 Q 355.5 55 711 400 Q 1066.5 745 1422 860"></path><path d="M 0 850 Q 355.5 55 711 400 Q 1066.5 745 1422 850"></path><path d="M 0 840 Q 355.5 55 711 400 Q 1066.5 745 1422 840"></path><path d="M 0 830 Q 355.5 55 711 400 Q 1066.5 745 1422 830"></path><path d="M 0 820 Q 355.5 55 711 400 Q 1066.5 745 1422 820"></path><path d="M 0 810 Q 355.5 55 711 400 Q 1066.5 745 1422 810"></path><path d="M 0 800 Q 355.5 55 711 400 Q 1066.5 745 1422 800"></path><path d="M 0 790 Q 355.5 55 711 400 Q 1066.5 745 1422 790"></path><path d="M 0 780 Q 355.5 55 711 400 Q 1066.5 745 1422 780"></path><path d="M 0 770 Q 355.5 55 711 400 Q 1066.5 745 1422 770"></path><path d="M 0 760 Q 355.5 55 711 400 Q 1066.5 745 1422 760"></path><path d="M 0 750 Q 355.5 55 711 400 Q 1066.5 745 1422 750"></path><path d="M 0 740 Q 355.5 55 711 400 Q 1066.5 745 1422 740"></path><path d="M 0 730 Q 355.5 55 711 400 Q 1066.5 745 1422 730"></path><path d="M 0 720 Q 355.5 55 711 400 Q 1066.5 745 1422 720"></path><path d="M 0 710 Q 355.5 55 711 400 Q 1066.5 745 1422 710"></path><path d="M 0 700 Q 355.5 55 711 400 Q 1066.5 745 1422 700"></path><path d="M 0 690 Q 355.5 55 711 400 Q 1066.5 745 1422 690"></path><path d="M 0 680 Q 355.5 55 711 400 Q 1066.5 745 1422 680"></path><path d="M 0 670 Q 355.5 55 711 400 Q 1066.5 745 1422 670"></path><path d="M 0 660 Q 355.5 55 711 400 Q 1066.5 745 1422 660"></path><path d="M 0 650 Q 355.5 55 711 400 Q 1066.5 745 1422 650"></path><path d="M 0 640 Q 355.5 55 711 400 Q 1066.5 745 1422 640"></path><path d="M 0 630 Q 355.5 55 711 400 Q 1066.5 745 1422 630"></path><path d="M 0 620 Q 355.5 55 711 400 Q 1066.5 745 1422 620"></path><path d="M 0 610 Q 355.5 55 711 400 Q 1066.5 745 1422 610"></path><path d="M 0 600 Q 355.5 55 711 400 Q 1066.5 745 1422 600"></path><path d="M 0 590 Q 355.5 55 711 400 Q 1066.5 745 1422 590"></path><path d="M 0 580 Q 355.5 55 711 400 Q 1066.5 745 1422 580"></path><path d="M 0 570 Q 355.5 55 711 400 Q 1066.5 745 1422 570"></path><path d="M 0 560 Q 355.5 55 711 400 Q 1066.5 745 1422 560"></path><path d="M 0 550 Q 355.5 55 711 400 Q 1066.5 745 1422 550"></path><path d="M 0 540 Q 355.5 55 711 400 Q 1066.5 745 1422 540"></path><path d="M 0 530 Q 355.5 55 711 400 Q 1066.5 745 1422 530"></path><path d="M 0 520 Q 355.5 55 711 400 Q 1066.5 745 1422 520"></path><path d="M 0 510 Q 355.5 55 711 400 Q 1066.5 745 1422 510"></path><path d="M 0 500 Q 355.5 55 711 400 Q 1066.5 745 1422 500"></path><path d="M 0 490 Q 355.5 55 711 400 Q 1066.5 745 1422 490"></path><path d="M 0 480 Q 355.5 55 711 400 Q 1066.5 745 1422 480"></path><path d="M 0 470 Q 355.5 55 711 400 Q 1066.5 745 1422 470"></path><path d="M 0 460 Q 355.5 55 711 400 Q 1066.5 745 1422 460"></path><path d="M 0 450 Q 355.5 55 711 400 Q 1066.5 745 1422 450"></path><path d="M 0 440 Q 355.5 55 711 400 Q 1066.5 745 1422 440"></path><path d="M 0 430 Q 355.5 55 711 400 Q 1066.5 745 1422 430"></path><path d="M 0 420 Q 355.5 55 711 400 Q 1066.5 745 1422 420"></path><path d="M 0 410 Q 355.5 55 711 400 Q 1066.5 745 1422 410"></path><path d="M 0 400 Q 355.5 55 711 400 Q 1066.5 745 1422 400"></path><path d="M 0 390 Q 355.5 55 711 400 Q 1066.5 745 1422 390"></path><path d="M 0 380 Q 355.5 55 711 400 Q 1066.5 745 1422 380"></path><path d="M 0 370 Q 355.5 55 711 400 Q 1066.5 745 1422 370"></path><path d="M 0 360 Q 355.5 55 711 400 Q 1066.5 745 1422 360"></path><path d="M 0 350 Q 355.5 55 711 400 Q 1066.5 745 1422 350"></path><path d="M 0 340 Q 355.5 55 711 400 Q 1066.5 745 1422 340"></path><path d="M 0 330 Q 355.5 55 711 400 Q 1066.5 745 1422 330"></path><path d="M 0 320 Q 355.5 55 711 400 Q 1066.5 745 1422 320"></path><path d="M 0 310 Q 355.5 55 711 400 Q 1066.5 745 1422 310"></path><path d="M 0 300 Q 355.5 55 711 400 Q 1066.5 745 1422 300"></path><path d="M 0 290 Q 355.5 55 711 400 Q 1066.5 745 1422 290"></path><path d="M 0 280 Q 355.5 55 711 400 Q 1066.5 745 1422 280"></path><path d="M 0 270 Q 355.5 55 711 400 Q 1066.5 745 1422 270"></path><path d="M 0 260 Q 355.5 55 711 400 Q 1066.5 745 1422 260"></path><path d="M 0 250 Q 355.5 55 711 400 Q 1066.5 745 1422 250"></path><path d="M 0 240 Q 355.5 55 711 400 Q 1066.5 745 1422 240"></path><path d="M 0 230 Q 355.5 55 711 400 Q 1066.5 745 1422 230"></path><path d="M 0 220 Q 355.5 55 711 400 Q 1066.5 745 1422 220"></path><path d="M 0 210 Q 355.5 55 711 400 Q 1066.5 745 1422 210"></path><path d="M 0 200 Q 355.5 55 711 400 Q 1066.5 745 1422 200"></path><path d="M 0 190 Q 355.5 55 711 400 Q 1066.5 745 1422 190"></path><path d="M 0 180 Q 355.5 55 711 400 Q 1066.5 745 1422 180"></path><path d="M 0 170 Q 355.5 55 711 400 Q 1066.5 745 1422 170"></path><path d="M 0 160 Q 355.5 55 711 400 Q 1066.5 745 1422 160"></path><path d="M 0 150 Q 355.5 55 711 400 Q 1066.5 745 1422 150"></path><path d="M 0 140 Q 355.5 55 711 400 Q 1066.5 745 1422 140"></path><path d="M 0 130 Q 355.5 55 711 400 Q 1066.5 745 1422 130"></path><path d="M 0 120 Q 355.5 55 711 400 Q 1066.5 745 1422 120"></path><path d="M 0 110 Q 355.5 55 711 400 Q 1066.5 745 1422 110"></path><path d="M 0 100 Q 355.5 55 711 400 Q 1066.5 745 1422 100"></path><path d="M 0 90 Q 355.5 55 711 400 Q 1066.5 745 1422 90"></path><path d="M 0 80 Q 355.5 55 711 400 Q 1066.5 745 1422 80"></path><path d="M 0 70 Q 355.5 55 711 400 Q 1066.5 745 1422 70"></path><path d="M 0 60 Q 355.5 55 711 400 Q 1066.5 745 1422 60"></path><path d="M 0 50 Q 355.5 55 711 400 Q 1066.5 745 1422 50"></path><path d="M 0 40 Q 355.5 55 711 400 Q 1066.5 745 1422 40"></path><path d="M 0 30 Q 355.5 55 711 400 Q 1066.5 745 1422 30"></path><path d="M 0 20 Q 355.5 55 711 400 Q 1066.5 745 1422 20"></path></g></svg>