<svg xmlns="http://www.w3.org/2000/svg" version="1.1" xmlns:xlink="http://www.w3.org/1999/xlink" xmlns:svgjs="http://svgjs.dev/svgjs" viewBox="0 0 1422 800"><g stroke-width="3" stroke="#382a40" fill="none" stroke-linecap="round"><path d="M 0 1290 Q 355.5 -25 711 400 Q 1066.5 825 1422 1290"></path><path d="M 0 1260 Q 355.5 -25 711 400 Q 1066.5 825 1422 1260"></path><path d="M 0 1230 Q 355.5 -25 711 400 Q 1066.5 825 1422 1230"></path><path d="M 0 1200 Q 355.5 -25 711 400 Q 1066.5 825 1422 1200"></path><path d="M 0 1170 Q 355.5 -25 711 400 Q 1066.5 825 1422 1170"></path><path d="M 0 1140 Q 355.5 -25 711 400 Q 1066.5 825 1422 1140"></path><path d="M 0 1110 Q 355.5 -25 711 400 Q 1066.5 825 1422 1110"></path><path d="M 0 1080 Q 355.5 -25 711 400 Q 1066.5 825 1422 1080"></path><path d="M 0 1050 Q 355.5 -25 711 400 Q 1066.5 825 1422 1050"></path><path d="M 0 1020 Q 355.5 -25 711 400 Q 1066.5 825 1422 1020"></path><path d="M 0 990 Q 355.5 -25 711 400 Q 1066.5 825 1422 990"></path><path d="M 0 960 Q 355.5 -25 711 400 Q 1066.5 825 1422 960"></path><path d="M 0 930 Q 355.5 -25 711 400 Q 1066.5 825 1422 930"></path><path d="M 0 900 Q 355.5 -25 711 400 Q 1066.5 825 1422 900"></path><path d="M 0 870 Q 355.5 -25 711 400 Q 1066.5 825 1422 870"></path><path d="M 0 840 Q 355.5 -25 711 400 Q 1066.5 825 1422 840"></path><path d="M 0 810 Q 355.5 -25 711 400 Q 1066.5 825 1422 810"></path><path d="M 0 780 Q 355.5 -25 711 400 Q 1066.5 825 1422 780"></path><path d="M 0 750 Q 355.5 -25 711 400 Q 1066.5 825 1422 750"></path><path d="M 0 720 Q 355.5 -25 711 400 Q 1066.5 825 1422 720"></path><path d="M 0 690 Q 355.5 -25 711 400 Q 1066.5 825 1422 690"></path><path d="M 0 660 Q 355.5 -25 711 400 Q 1066.5 825 1422 660"></path><path d="M 0 630 Q 355.5 -25 711 400 Q 1066.5 825 1422 630"></path><path d="M 0 600 Q 355.5 -25 711 400 Q 1066.5 825 1422 600"></path><path d="M 0 570 Q 355.5 -25 711 400 Q 1066.5 825 1422 570"></path><path d="M 0 540 Q 355.5 -25 711 400 Q 1066.5 825 1422 540"></path><path d="M 0 510 Q 355.5 -25 711 400 Q 1066.5 825 1422 510"></path><path d="M 0 480 Q 355.5 -25 711 400 Q 1066.5 825 1422 480"></path><path d="M 0 450 Q 355.5 -25 711 400 Q 1066.5 825 1422 450"></path><path d="M 0 420 Q 355.5 -25 711 400 Q 1066.5 825 1422 420"></path><path d="M 0 390 Q 355.5 -25 711 400 Q 1066.5 825 1422 390"></path><path d="M 0 360 Q 355.5 -25 711 400 Q 1066.5 825 1422 360"></path><path d="M 0 330 Q 355.5 -25 711 400 Q 1066.5 825 1422 330"></path><path d="M 0 300 Q 355.5 -25 711 400 Q 1066.5 825 1422 300"></path><path d="M 0 270 Q 355.5 -25 711 400 Q 1066.5 825 1422 270"></path><path d="M 0 240 Q 355.5 -25 711 400 Q 1066.5 825 1422 240"></path><path d="M 0 210 Q 355.5 -25 711 400 Q 1066.5 825 1422 210"></path><path d="M 0 180 Q 355.5 -25 711 400 Q 1066.5 825 1422 180"></path><path d="M 0 150 Q 355.5 -25 711 400 Q 1066.5 825 1422 150"></path><path d="M 0 120 Q 355.5 -25 711 400 Q 1066.5 825 1422 120"></path><path d="M 0 90 Q 355.5 -25 711 400 Q 1066.5 825 1422 90"></path><path d="M 0 60 Q 355.5 -25 711 400 Q 1066.5 825 1422 60"></path></g></svg>