<svg xmlns="http://www.w3.org/2000/svg" version="1.1" xmlns:xlink="http://www.w3.org/1999/xlink" xmlns:svgjs="http://svgjs.dev/svgjs" viewBox="0 0 1422 800"><g stroke-width="2.5" stroke="#a4f236" fill="none" stroke-linecap="round"><path d="M 0 -2160 Q 355.5 -25 711 400 Q 1066.5 825 1422 -2160"></path><path d="M 0 -2124 Q 355.5 -25 711 400 Q 1066.5 825 1422 -2124"></path><path d="M 0 -2088 Q 355.5 -25 711 400 Q 1066.5 825 1422 -2088"></path><path d="M 0 -2052 Q 355.5 -25 711 400 Q 1066.5 825 1422 -2052"></path><path d="M 0 -2016 Q 355.5 -25 711 400 Q 1066.5 825 1422 -2016"></path><path d="M 0 -1980 Q 355.5 -25 711 400 Q 1066.5 825 1422 -1980"></path><path d="M 0 -1944 Q 355.5 -25 711 400 Q 1066.5 825 1422 -1944"></path><path d="M 0 -1908 Q 355.5 -25 711 400 Q 1066.5 825 1422 -1908"></path><path d="M 0 -1872 Q 355.5 -25 711 400 Q 1066.5 825 1422 -1872"></path><path d="M 0 -1836 Q 355.5 -25 711 400 Q 1066.5 825 1422 -1836"></path><path d="M 0 -1800 Q 355.5 -25 711 400 Q 1066.5 825 1422 -1800"></path><path d="M 0 -1764 Q 355.5 -25 711 400 Q 1066.5 825 1422 -1764"></path><path d="M 0 -1728 Q 355.5 -25 711 400 Q 1066.5 825 1422 -1728"></path><path d="M 0 -1692 Q 355.5 -25 711 400 Q 1066.5 825 1422 -1692"></path><path d="M 0 -1656 Q 355.5 -25 711 400 Q 1066.5 825 1422 -1656"></path><path d="M 0 -1620 Q 355.5 -25 711 400 Q 1066.5 825 1422 -1620"></path><path d="M 0 -1584 Q 355.5 -25 711 400 Q 1066.5 825 1422 -1584"></path><path d="M 0 -1548 Q 355.5 -25 711 400 Q 1066.5 825 1422 -1548"></path><path d="M 0 -1512 Q 355.5 -25 711 400 Q 1066.5 825 1422 -1512"></path><path d="M 0 -1476 Q 355.5 -25 711 400 Q 1066.5 825 1422 -1476"></path><path d="M 0 -1440 Q 355.5 -25 711 400 Q 1066.5 825 1422 -1440"></path><path d="M 0 -1404 Q 355.5 -25 711 400 Q 1066.5 825 1422 -1404"></path><path d="M 0 -1368 Q 355.5 -25 711 400 Q 1066.5 825 1422 -1368"></path><path d="M 0 -1332 Q 355.5 -25 711 400 Q 1066.5 825 1422 -1332"></path><path d="M 0 -1296 Q 355.5 -25 711 400 Q 1066.5 825 1422 -1296"></path><path d="M 0 -1260 Q 355.5 -25 711 400 Q 1066.5 825 1422 -1260"></path><path d="M 0 -1224 Q 355.5 -25 711 400 Q 1066.5 825 1422 -1224"></path><path d="M 0 -1188 Q 355.5 -25 711 400 Q 1066.5 825 1422 -1188"></path><path d="M 0 -1152 Q 355.5 -25 711 400 Q 1066.5 825 1422 -1152"></path><path d="M 0 -1116 Q 355.5 -25 711 400 Q 1066.5 825 1422 -1116"></path><path d="M 0 -1080 Q 355.5 -25 711 400 Q 1066.5 825 1422 -1080"></path><path d="M 0 -1044 Q 355.5 -25 711 400 Q 1066.5 825 1422 -1044"></path><path d="M 0 -1008 Q 355.5 -25 711 400 Q 1066.5 825 1422 -1008"></path><path d="M 0 -972 Q 355.5 -25 711 400 Q 1066.5 825 1422 -972"></path><path d="M 0 -936 Q 355.5 -25 711 400 Q 1066.5 825 1422 -936"></path><path d="M 0 -900 Q 355.5 -25 711 400 Q 1066.5 825 1422 -900"></path><path d="M 0 -864 Q 355.5 -25 711 400 Q 1066.5 825 1422 -864"></path><path d="M 0 -828 Q 355.5 -25 711 400 Q 1066.5 825 1422 -828"></path><path d="M 0 -792 Q 355.5 -25 711 400 Q 1066.5 825 1422 -792"></path><path d="M 0 -756 Q 355.5 -25 711 400 Q 1066.5 825 1422 -756"></path><path d="M 0 -720 Q 355.5 -25 711 400 Q 1066.5 825 1422 -720"></path><path d="M 0 -684 Q 355.5 -25 711 400 Q 1066.5 825 1422 -684"></path><path d="M 0 -648 Q 355.5 -25 711 400 Q 1066.5 825 1422 -648"></path><path d="M 0 -612 Q 355.5 -25 711 400 Q 1066.5 825 1422 -612"></path><path d="M 0 -576 Q 355.5 -25 711 400 Q 1066.5 825 1422 -576"></path><path d="M 0 -540 Q 355.5 -25 711 400 Q 1066.5 825 1422 -540"></path><path d="M 0 -504 Q 355.5 -25 711 400 Q 1066.5 825 1422 -504"></path><path d="M 0 -468 Q 355.5 -25 711 400 Q 1066.5 825 1422 -468"></path><path d="M 0 -432 Q 355.5 -25 711 400 Q 1066.5 825 1422 -432"></path><path d="M 0 -396 Q 355.5 -25 711 400 Q 1066.5 825 1422 -396"></path><path d="M 0 -360 Q 355.5 -25 711 400 Q 1066.5 825 1422 -360"></path><path d="M 0 -324 Q 355.5 -25 711 400 Q 1066.5 825 1422 -324"></path><path d="M 0 -288 Q 355.5 -25 711 400 Q 1066.5 825 1422 -288"></path><path d="M 0 -252 Q 355.5 -25 711 400 Q 1066.5 825 1422 -252"></path><path d="M 0 -216 Q 355.5 -25 711 400 Q 1066.5 825 1422 -216"></path><path d="M 0 -180 Q 355.5 -25 711 400 Q 1066.5 825 1422 -180"></path><path d="M 0 -144 Q 355.5 -25 711 400 Q 1066.5 825 1422 -144"></path><path d="M 0 -108 Q 355.5 -25 711 400 Q 1066.5 825 1422 -108"></path><path d="M 0 -72 Q 355.5 -25 711 400 Q 1066.5 825 1422 -72"></path></g></svg>